<svg xmlns="http://www.w3.org/2000/svg">
  <defs>
    <symbol viewBox="0 0 48 48" id="icon-angularjs">
      <path fill="#bdbdbd" d="M23.933 2L3 9.285l3.308 27.123L23.955 46l17.738-9.722L45 9.156z"/>
      <path fill="#b71c1c" d="M42.818 10.527L24 4.135v39.56l15.832-8.678z"/>
      <path fill="#dd2c00" d="M23.941 4.115l-18.76 6.529 2.987 24.499 15.783 8.578.049-.026V4.135z"/>
      <path fill="#bdbdbd" d="M24 5.996v9.508L32.578 34h4.409z"/>
      <path fill="#eee" d="M11.013 34h4.409L24 15.504V5.996z"/>
      <path fill="#bdbdbd" d="M24 24h6v4h-6z"/>
      <path fill="#eee" d="M18 24h6v4h-6z"/>
    </symbol>
    <symbol viewBox="0 0 48 48" id="icon-api-settings">
      <path fill="#455a64" d="M44 21.778l-8.819-2.409 4.532-7.938-3.142-3.145-7.594 4.336L26.222 4h-4.444l-2.64 8.264-7.708-3.978-3.143 3.145 3.977 7.708L4 21.778v4.444l8.263 2.639-3.977 7.708 3.143 3.145 7.708-3.978L21.778 44h4.444l2.639-8.264 7.709 3.978 3.142-3.145-4.149-8.043L44 26.222v-4.444zM24 32.889c-4.91 0-8.889-3.98-8.889-8.889S19.09 15.111 24 15.111a8.89 8.89 0 0 1 0 17.778z"/>
      <path fill="#78909c" d="M24 9C15.716 9 9 15.716 9 24s6.716 15 15 15c8.284 0 15-6.716 15-15S32.284 9 24 9z"/>
      <path fill="#fff" d="M19.32 26.953h-2.741L16.046 29H13.92l3.11-10h1.839L22 29h-2.146l-.534-2.047zm-2.303-1.681h1.859l-.93-3.566-.929 3.566zM33 29h-2V19h2v10zm-7.99-3.516V29H23V19h3.391c.984 0 1.77.306 2.354.92.586.614.879 1.411.879 2.39 0 .979-.29 1.752-.868 2.321-.579.569-1.381.852-2.406.852h-1.34zm0-1.684h1.381c.383 0 .679-.126.889-.377.209-.251.314-.618.314-1.099 0-.498-.108-.895-.321-1.193a1.03 1.03 0 0 0-.861-.447H25.01V23.8z"/>
    </symbol>
    <symbol viewBox="0 0 48 48" id="icon-arduino">
      <path fill="#009688" d="M35.7 34.7c-7.7 0-13.2-8.9-13.4-9.3l-.6-1 .6-1c.2-.5 5.7-9.4 13.4-9.4C41.4 14 46 18.6 46 24.3s-4.6 10.4-10.3 10.4zm-9.3-10.4c1.5 2 5.1 6.3 9.2 6.3 3.5 0 6.3-2.8 6.3-6.3S39.1 18 35.6 18c-4.1 0-7.7 4.3-9.2 6.3z"/>
      <path fill="#009688" d="M12.3 34.7C6.6 34.7 2 30 2 24.3S6.6 14 12.3 14c7.9 0 13.2 8.9 13.4 9.3l.6 1-.6 1c-.2.4-5.7 9.4-13.4 9.4zm0-16.7C8.8 18 6 20.8 6 24.3s2.8 6.3 6.3 6.3c4.2 0 7.8-4.3 9.3-6.3-1.4-2-5-6.3-9.3-6.3z"/>
      <path fill="#009688" d="M10 23h6v2h-6v-2zm22 0h6v2h-6v-2z"/>
      <path fill="#009688" d="M34 21h2v6h-2v-6z"/>
    </symbol>
    <symbol viewBox="0 0 48 48" id="icon-bootstrap">
      <path fill="#673ab7" d="M42 37a5 5 0 0 1-5 5H11a5 5 0 0 1-5-5V11a5 5 0 0 1 5-5h26a5 5 0 0 1 5 5v26z"/>
      <path fill="#fff" d="M33.03 25.6c-.65-.9-1.59-1.52-2.8-1.85 0 0 1.02-.37 1.94-1.75.55-.88.83-1.94.83-3.18 0-2.15-.78-3.8-2.34-4.93C29.1 12.76 27.34 12 24.35 12H15v24h10.43c2.83-.02 4.96-.63 6.41-1.8 1.44-1.19 2.16-2.95 2.16-5.3 0-1.3-.32-2.4-.97-3.3zM21 16h4.25c1.52 0 2.75 1.23 2.75 2.75s-1.23 2.75-2.75 2.75H21V16zm5 16h-5v-6h5c1.66 0 3 1.34 3 3s-1.34 3-3 3z"/>
    </symbol>
    <symbol viewBox="0 0 50 50" id="icon-c-plus-plus-logo">
      <path d="M43.91 12.004L27.07 2.539a4.265 4.265 0 0 0-4.14 0L6.09 12.004A4.066 4.066 0 0 0 4 15.535v18.93c0 1.453.8 2.808 2.09 3.531l16.84 9.465c.64.36 1.355.539 2.07.539.715 0 1.43-.18 2.07-.54l16.84-9.464A4.066 4.066 0 0 0 46 34.465v-18.93c0-1.453-.8-2.808-2.09-3.531zM25 37c-6.617 0-12-5.383-12-12s5.383-12 12-12c3.781 0 7.273 1.754 9.543 4.742l-4.383 2.535A6.993 6.993 0 0 0 25 18c-3.86 0-7 3.14-7 7s3.14 7 7 7a6.993 6.993 0 0 0 5.16-2.277l4.383 2.535A11.931 11.931 0 0 1 25 37zm12-11h-2v2h-2v-2h-2v-2h2v-2h2v2h2zm7 0h-2v2h-2v-2h-2v-2h2v-2h2v2h2z"/>
    </symbol>
    <symbol viewBox="0 0 48 48" id="icon-cloud-connection">
      <path fill="#cfd8dc" d="M18 38h-1c-3.3 0-6-2.7-6-6v-7h2v7c0 2.2 1.8 4 4 4h1v2z"/>
      <path fill="#bbdefb" d="M29.5 4a8.5 8.5 0 1 0 0 17 8.5 8.5 0 1 0 0-17z"/>
      <path fill="#bbdefb" d="M37 13.9a7 7 0 1 0 0 14 7 7 0 1 0 0-14zM11 14a7 7 0 1 0 0 14 7 7 0 1 0 0-14z"/>
      <path fill="#bbdefb" d="M17.5 7a6.5 6.5 0 1 0 0 13 6.5 6.5 0 1 0 0-13z"/>
      <path fill="#bbdefb" d="M25 11.9a7 7 0 1 0 0 14 7 7 0 1 0 0-14z"/>
      <path fill="#bbdefb" d="M7 24c0 2.2 1.8 4 4 4h25c2.2 0 4-1.8 4-4v-1c0-2.2-1.8-4-4-4H11c-2.2 0-4 1.8-4 4v1z"/>
      <path fill="#ffc107" d="M28 35h9v-2h-9zm0 6h9v-2h-9z"/>
      <path fill="#90a4ae" d="M29 32h-4l-3 3v4l3 3h4z"/>
      <path fill="#546e7a" d="M22 35h-4v4h4zm10 9h-4V30h4z"/>
    </symbol>
    <symbol viewBox="0 0 48 48" id="icon-console">
      <path fill="#CFD8DC" d="M41 6H7c-.6 0-1 .4-1 1v35h36V7c0-.6-.4-1-1-1z"/>
      <path fill="#263238" d="M8 13h32v27H8z"/>
      <path fill="#90A4AE" d="M13.5 8a1.5 1.5 0 1 0 0 3 1.5 1.5 0 1 0 0-3zm-4 0a1.5 1.5 0 1 0 0 3 1.5 1.5 0 1 0 0-3z"/>
      <path fill="#18FFFF" d="M18.5 26.5l-3.5-2V22l6 3.4v2.1L15 31v-2.5l3.5-2zM23 29h10v2H23z"/>
    </symbol>
    <symbol viewBox="0 0 48 48" id="icon-css3">
      <path fill="#0277BD" d="M41 5H7l3 34 14 4 14-4 3-34z"/>
      <path fill="#039BE5" d="M24 8v31.9l11.2-3.2L37.7 8z"/>
      <path fill="#FFF" d="M33.1 13H24v4h4.9l-.3 4H24v4h4.4l-.3 4.5-4.1 1.4v4.2l7.9-2.6.7-11.5z"/>
      <path fill="#EEE" d="M24 13v4h-8.9l-.3-4H24zm-4.6 8l.2 4H24v-4h-4.6zm.4 6h-4l.3 5.5 7.9 2.6v-4.2l-4.1-1.4-.1-2.5z"/>
    </symbol>
    <symbol viewBox="0 0 48 48" id="icon-docker">
      <path fill="#03A9F4" d="M40 20c.391-1.735-.092-3.78-2.5-6-3.914 3.543-2.795 7.227-1.5 9 0 0-.166 1-4 1H2S.167 40 18 40c15.593 0 19.973-12.003 20.828-15.076.354.048.751.079 1.172.076 2.147-.017 4.93-1.171 6-5.484-2.838-.983-4.661-.538-6 .484z"/>
      <path fill="#0288D1" d="M2.165 28C2.9 32.739 5.983 40 18 40c12.185 0 17.523-7.33 19.682-12H2.165z"/>
      <path fill="#81D4FA" d="M19.812 39.938c-.92-.322-5.072-1.09-5.812-6.938-4.209 1.863-7.938 1.375-9.579 1.008C6.583 37.237 10.591 40 18 40c.623 0 1.224-.024 1.812-.062z"/>
      <path fill="#FFF" d="M18 30a2 2 0 1 0 0 4 2 2 0 1 0 0-4z"/>
      <path fill="#37474F" d="M14.914 33.597c.224.505.02 1.162-.51 1.318-3.301.973-6.146 1.102-8.297 1.102a12.174 12.174 0 0 1-1.656-1.963c2.585 0 6.71-.12 9.144-.966.522-.182 1.095.002 1.319.509zM2 27s1.875.125 3-1c1.875 1.688 5.94 1.088 7 0 1.063 1.688 6.938 1.375 8 0 1.25 1.438 6.625 1.75 8 0 .479 1.461 6.819 1.874 8 0 1.061 1.088 5.063 1.938 7.311 0C43.875 27.188 46 27 46 27v1H2m15 4a1 1 0 1 0 2 0 1 1 0 0 0-2 0z"/>
      <path fill="#01579B" d="M11 24H6v-5h5v5zm10-5h-5v5h5v-5zm10 0h-5v5h5v-5zm-15-5h-5v5h5v-5zm10 0h-5v5h5v-5z"/>
      <path fill="#0288D1" d="M16 24h-5v-5h5v5zm10-5h-5v5h5v-5zm0-10h-5v5h5V9zm-5 5h-5v5h5v-5z"/>
    </symbol>
    <symbol viewBox="0 0 48 48" id="icon-git">
      <path fill="#F4511E" d="M42.2 22.1L25.9 5.8c-.5-.5-1.2-.8-1.9-.8s-1.4.3-1.9.8l-3.5 3.5 4.1 4.1c.4-.2.8-.3 1.3-.3 1.7 0 3 1.3 3 3 0 .5-.1.9-.3 1.3l4 4c.4-.2.8-.3 1.3-.3 1.7 0 3 1.3 3 3s-1.3 3-3 3-3-1.3-3-3c0-.5.1-.9.3-1.3l-4-4c-.1 0-.2.1-.3.1v10.4c1.2.4 2 1.5 2 2.8 0 1.7-1.3 3-3 3s-3-1.3-3-3c0-1.3.8-2.4 2-2.8V18.8c-1.2-.4-2-1.5-2-2.8 0-.5.1-.9.3-1.3l-4.1-4.1L5.8 22.1c-.5.5-.8 1.2-.8 1.9s.3 1.4.8 1.9l16.3 16.3c.5.5 1.2.8 1.9.8s1.4-.3 1.9-.8l16.3-16.3c.5-.5.8-1.2.8-1.9s-.3-1.4-.8-1.9z"/>
    </symbol>
    <symbol viewBox="0 0 50 50" id="icon-github">
      <path d="M17.791 46.836A1.999 1.999 0 0 0 19 45v-5.4c0-.197.016-.402.041-.61A.611.611 0 0 1 19 39h-3.6c-1.5 0-2.8-.6-3.4-1.8-.7-1.3-1-3.5-2.8-4.7-.3-.2-.1-.5.5-.5.6.1 1.9.9 2.7 2 .9 1.1 1.8 2 3.4 2 2.487 0 3.82-.125 4.622-.555C21.356 34.056 22.649 33 24 33v-.025c-5.668-.182-9.289-2.066-10.975-4.975-3.665.042-6.856.405-8.677.707a21.537 21.537 0 0 1-.151-.987c1.797-.296 4.843-.647 8.345-.714a8.162 8.162 0 0 1-.291-.849c-3.511-.178-6.541-.039-8.187.097-.02-.332-.047-.663-.051-.999 1.649-.135 4.597-.27 8.018-.111a9.832 9.832 0 0 1-.13-1.543c0-1.7.6-3.5 1.7-5-.5-1.7-1.2-5.3.2-6.6 2.7 0 4.6 1.3 5.5 2.1C21 13.4 22.9 13 25 13s4 .4 5.6 1.1c.9-.8 2.8-2.1 5.5-2.1 1.5 1.4.7 5 .2 6.6 1.1 1.5 1.7 3.2 1.6 5 0 .484-.045.951-.11 1.409 3.499-.172 6.527-.034 8.204.102-.002.337-.033.666-.051.999-1.671-.138-4.775-.28-8.359-.089a8.272 8.272 0 0 1-.325.98c3.546.046 6.665.389 8.548.689-.043.332-.093.661-.151.987-1.912-.306-5.171-.664-8.879-.682-1.665 2.878-5.22 4.755-10.777 4.974V33c2.6 0 5 3.9 5 6.6V45c0 .823.498 1.53 1.209 1.836C41.37 43.804 48 35.164 48 25 48 12.318 37.683 2 25 2S2 12.318 2 25c0 10.164 6.63 18.804 15.791 21.836z"/>
    </symbol>
    <symbol viewBox="0 0 48 48" id="icon-html-5">
      <path fill="#E65100" d="M41 5H7l3 34 14 4 14-4 3-34z"/>
      <path fill="#FF6D00" d="M24 8v31.9l11.2-3.2L37.7 8z"/>
      <path fill="#FFF" d="M24 25v-4h8.6l-.7 11.5-7.9 2.6v-4.2l4.1-1.4.3-4.5H24zm8.9-8l.3-4H24v4h8.9z"/>
      <path fill="#EEE" d="M24 30.9v4.2l-7.9-2.6-.4-5.5h4l.2 2.5 4.1 1.4zM19.1 17H24v-4h-9.1l.7 12H24v-4h-4.6l-.3-4z"/>
    </symbol>
    <symbol viewBox="0 0 50 50" id="icon-ionic">
      <path d="M25 2C12.318 2 2 12.317 2 25s10.318 23 23 23 23-10.317 23-23c0-3.425-.758-6.676-2.107-9.6a7.521 7.521 0 0 1-4.079 3.23A17.876 17.876 0 0 1 43 25c0 9.925-8.075 18-18 18S7 34.925 7 25 15.075 7 25 7c2.7 0 5.253.614 7.553 1.684a7.538 7.538 0 0 1 3.508-3.842A22.845 22.845 0 0 0 25 2zm14.5 4a5.5 5.5 0 0 0-5.5 5.5 5.5 5.5 0 0 0 5.5 5.5 5.5 5.5 0 0 0 5.5-5.5A5.5 5.5 0 0 0 39.5 6zM25 15a10 10 0 0 0-10 10 10 10 0 0 0 10 10 10 10 0 0 0 10-10 10 10 0 0 0-10-10z"/>
    </symbol>
    <symbol viewBox="0 0 48 48" id="icon-javascript">
      <path fill="#ffd600" d="M6 42V6h36v36H6z"/>
      <path fill="#000001" d="M29.538 32.947c.692 1.124 1.444 2.201 3.037 2.201 1.338 0 2.04-.665 2.04-1.585 0-1.101-.726-1.492-2.198-2.133l-.807-.344c-2.329-.988-3.878-2.226-3.878-4.841 0-2.41 1.845-4.244 4.728-4.244 2.053 0 3.528.711 4.592 2.573l-2.514 1.607c-.553-.988-1.151-1.377-2.078-1.377-.946 0-1.545.597-1.545 1.377 0 .964.6 1.354 1.985 1.951l.807.344C36.452 29.645 38 30.839 38 33.523 38 36.415 35.716 38 32.65 38c-2.999 0-4.702-1.505-5.65-3.368l2.538-1.685zm-11.586.082c.506.906 1.275 1.603 2.381 1.603 1.058 0 1.667-.418 1.667-2.043V22h3.333v11.101c0 3.367-1.953 4.899-4.805 4.899-2.577 0-4.437-1.746-5.195-3.368l2.619-1.603z"/>
    </symbol>
    <symbol viewBox="0 0 48 48" id="icon-jenkins">
      <path fill="#ffe0b2" d="M15.2 33.5c-.5.3-8.2 5.2-8.2 5.5v.4L8.4 43h31.2s1.5-4.8 1.4-6c0-.6-5-3.9-5-3.9s3.9-3.9 4-12.4c0-.8 0-1.6-.1-2.4-.7-9.6-6.8-13-13.2-13.3-6.5-.2-10.1 2.8-10.1 2.8s-4.1 1.4-4.5 4.7c0 0-3.2.6-1.5 7.1C9.3 20.6 9 22 9 23c0 1.3.4 2.8 1.2 3.7 1.7 1.8 3.1 1.4 3.1 1.4s.6 3.2 1.9 5.4z"/>
      <path fill="#f44336" d="M36.8 36.9c-.2-1.3-.8-1.9-2.1-1.9h-.2c-.4.1-1 .3-2.7 1.5l-1 .7c-.2-.1-.5-.2-.8-.2-.5 0-.9.2-1.3.5l-1-.5-1.7-.9c-.9-.4-1.8-.7-2.5-.7-.5 0-.9.1-1.3.3-.5.4-.7 1-.6 1.8 0 .4.1.9.1 1.3.2 2.1.3 3.6 2.3 3.7h.3c1.1 0 2.4-.4 3.6-1.3l.9-.6c.3.2.7.4 1.1.4.5 0 .9-.2 1.2-.4l1.4.3c.6.1 1.1.2 1.6.2h.4c.5 0 1 0 1.5-.3.6-.3.9-1 .9-2.1 0-.5-.1-1-.1-1.4v-.4z"/>
      <path fill="#fff" d="M21.7 38.9c0-.4-.1-.8-.1-1.3-.1-.6 0-1 .2-1.4-5-.1-6.6-2.7-6.6-2.7s-.3 1.6 1.1 3.4c2.1 2.5 5.3 2.8 5.3 2.8h.2c0-.2 0-.5-.1-.8z"/>
      <path fill="#546e7a" d="M22.9 43l-.7-1.4c-.1-.3-.2-.6-.3-1.1l-.1-.7-.7-.1c-.9-.2-3.1-.8-4.7-2.7-.5-.6-.8-1.3-1-2l-.4-1.3-1.1.7c-2 1.3-5.3 3.4-6.4 4.3l-.6.5L8.4 43h14.5z"/>
      <path fill="#455a64" d="M12.2 43h10.7l-.7-1.4c-.1-.3-.2-.6-.3-1.1l-.1-.7-.7-.1c-.9-.2-3.1-.8-4.7-2.7-.1-.1-.2-.3-.3-.4L11 40l1.2 3z"/>
      <path fill="#546e7a" d="M40.7 36.5c-.6-.6-2.4-1.9-3.1-2.4l-.7-.5c-.2.2-.6.7-1.3 1.2l.7.7c.3.3.5.8.6 1.3v.3c.1.4.1.9.1 1.4 0 1.7-.6 2-.9 2.1-.2.1-.5.2-.8.2l.1 2h4.1l.2-.7c.5-1.6 1.1-3.9 1.2-4.9v-.5l-.2-.2z"/>
      <path fill="#455a64" d="M39.6 43l.2-.7c.3-.8.5-1.9.8-2.8l-3.7-2c0 .3.1.7.1 1.1 0 1.7-.6 2-.9 2.1-.2.1-.5.2-.8.2l.1 2 4.2.1z"/>
      <path fill="#616161" d="M10.3 19.8s.1-.1 0 0l.1-.1c.5-.4 1.2-.7 1.8-.7.6 0 .9.2 1.2.3 1.3.7 1.6 2 1.7 2.9v.2c.6-.2 1.2-.4 1.4-.5 0-.1 0-.3-.1-.6-.1-.4-.2-.9-.4-1.4-.4-1.1-.3-2.5.3-4.3l.1-.2c.1-.4.3-.8.3-1.1 0-.3.1-.6.1-.7 0-.3-.1-.5-.2-.8l-.2-.5.3-.5c.9-1.5 4.2-6.5 10.9-6.5h.7-.2c-.4-.2-.9-.3-1.4-.3H26c-5.4 0-8.7 2.3-9.3 2.7l-.1.1-.1.1c-.6.2-3.7 1.5-4.3 4.2l-.2.3-.4.2c-.4.2-.7.5-.9.9-.7 1.2-.8 3-.3 5.5l.1.5-.4.5-.1.1.3-.3z"/>
      <path fill="#263238" d="M28 41h6v2h-6zM14.2 22.4c-.1-.9-.4-1.7-1.1-2.1-.3-.1-.5-.2-.8-.2-.5 0-1.1.2-1.6.9l-.7-2c.9-.5 1.7-.8 2.5-.8.5 0 1 .1 1.5.3.4.2.8.5 1.1.8-.2-1.4.1-2.9.5-4.1.2-.5.3-1 .4-1.3.1-.6 0-.7-.2-1-1.9.2-3.5.7-3.5.7l-.5-1.9c.1 0 2.1-.6 4.4-.8l.7-.1.3.6s.1.1.1.2c.3.3.7.9.8 1.9 0 .2 0 .6-.1.9-.1.5-.3.9-.4 1.5-.4 1.2-.7 2.6-.3 3.6.2.6.3 1.2.4 1.6.1.4.2 1.3-.2 1.6-.4.3-2.7 1-2.7 1s-.5-.4-.6-1.3z"/>
      <path fill="#263238" d="M17.5 12.6l-1.8-.8c0-.1 3.7-8.2 13-7.6l-.1 2c-8-.4-11.1 6.4-11.1 6.4z"/>
      <path fill="#fff" d="M22 36.2c-5.1 0-6.8-2.7-6.8-2.7s-.3 1.6 1.1 3.4c2.1 2.5 5.3 2.8 5.3 2.8"/>
      <path fill="#263238" d="M21.5 40.7c-.1 0-3.6-.4-5.9-3.2-1.7-2.2-1.4-4-1.3-4.2l.5-2.6 1.4 2.3c.1.1 1.5 2.2 5.9 2.2v2c-2.1 0-3.7-.4-4.9-1v.1c1.8 2.1 4.5 2.4 4.6 2.4l-.3 2zM34.7 42h-.3c-1.8 0-3.5-.6-3.6-.6l.7-1.9s1.4.5 2.8.5h.1c.5 0 1 0 1.3-.1.3-.2.3-.9.3-1.3s-.1-.9-.1-1.3V37c-.1-.8-.4-1.1-1.2-1.1-.6.1-2.5 1.5-3.2 2l-.5.4-1.2-1.6.4-.3c1.9-1.4 3.4-2.4 4.4-2.4 1.8 0 2.9 1 3.2 2.8v.3c.1.4.1 1 .2 1.5 0 1.5-.4 2.6-1.4 3-.7.4-1.3.4-1.9.4z"/>
      <path fill="#263238" d="M24.3 43.6H24c-2.9-.2-3.1-2.5-3.2-4.6 0-.4-.1-.8-.1-1.2-.2-1.6.5-2.4 1-2.8 1.3-.9 3.3-.5 4.8.2l3 1.6-.9 1.8-3-1.6c-1.2-.6-2.4-.7-2.7-.4-.2.2-.2.6-.2.9.1.4.1.9.1 1.3.2 2.4.4 2.7 1.4 2.8 2.1.2 4.2-1.8 4.2-1.9l1.4 1.4c-.2.2-2.6 2.5-5.5 2.5zM21 15.4s-.2.6-.6.6c-.2 0-.4-.4-.4-.8 0-1.2.8-2.7 1.6-3.4.6-.5 1.4-.8 2.3-.8.4 0 .9 0 1.3.2.5.2.8.6.8 1.4 0 0 0 .4-1.3.4-.8 0-1.8.1-2.2.5-.4.4-1 .8-1.5 1.9zm5.4 5.6c-.5 0-1.1-.1-1.6-.2-.6-.1-.9-.7-.7-1.2l.2-.3c.1-.2.3-.3.5-.3h.3c.8.2 2 .2 2.4.2-.5-1.9-.4-3.3-.1-3.3s1.1 2.3 1.5 2.8c.4.5.3 1.1-.1 1.5-.7.6-1.5.8-2.4.8zm10 0h-.5c-.6-.1-.9-.5-.9-1.1 0 0 .1-.9.6-.9.4 0 .9.2 1.1.2-.2-1.2-.5-3.2-.2-3.2s1 2.4 2.4 3.3c.4.3.4.9-.2 1.3-.8.3-1.5.4-2.3.4zm1.9-6.5c-.2-.8-1.1-1.5-2.1-1.8-1.3-.3-2.2.3-2.2.3 0-.9.7-1.6 1-1.7.4-.2.6-.3 1-.3 2.1 0 2.9 1.3 3.6 2.6l-1.3.9z"/>
      <path fill="#263238" d="M31.9 27h-.4c-.7 0-1.3-.2-1.7-.7-.8-.9-.9-2.1-.6-2.3.3-.2.5.5 1.5.8 0 0 .7.1.9.1h.5c1.3 0 2.4-.3 2.8-.6.1-.1.1-.3.1-.3s0-.3-1.3-1.5-1.7-2.7-1.7-4c0-1.5.2-2.5.4-2.5.3 0 .6 3.2 2.7 5 1.5 1.3 1.9 2.2 1.9 3.1 0 .9-.5 1.4-.8 1.7-1.1 1-2.9 1.2-4.3 1.2zm-.5 3c-3.1-.1-4.7-2-4.7-2s3.5.3 5.8.3V30h-1.1zm2.2 0v-1.8c.2-.1 1.8.1 3.6-.6-.4 2.1-3.5 2.4-3.6 2.4zm-4.5 3c-2.2 0-3.3-.6-4.1-3.2 0 0-.1-.2.2-.3s.4.1.4.1c.4 1.1 2.1 1.4 4.2 1.4h3.3s-.4 2-2.5 2h-1.5z"/>
      <path fill="#263238" d="M29 37c-3.2 0-5.7-1-8.4-3.9-1.5-1.6-1.5-3.7-1.3-3.9s.5 1.2 1.7 2.5c2.4 2.6 5.8 3.4 8.7 3.2 3.8-.3 5.4-2.5 5.7-2.7l1.7 1.2c-.1.1-2.4 3.1-7.2 3.5-.4.1-.6.1-.9.1zm-15.6-8l-.1-1-.1-1s.2-.1.6-.4c.3-.2.6-.2.9 0l.5.4c.3.3.3.8 0 1.1-.9.8-1.7.9-1.8.9zm-.4-6l1.6.6c-.1-.4-.6-2.2-2-2.6-.4-.1-1.1.2-1.2.9v.4C11.5 24 13 25 13 25v-2z"/>
      <path fill="#263238" d="M30 42c-1.7 0-3-1.3-3-3s1.3-3 3-3 3 1.3 3 3-1.3 3-3 3zm0-4c-.5 0-1 .4-1 1s.4 1 1 1 1-.4 1-1-.4-1-1-1z"/>
      <path fill="#263238" d="M39.6 44H8.4c-.4 0-.8-.2-.9-.6l-1.4-3.5c-.1-.3-.1-.4-.1-.6v-.4c.1-1 5.7-4.5 7.9-5.8-.7-1.5-1.2-3.1-1.4-4.1-.8-.1-1.8-.5-3-1.7C8.4 26.2 8 24.3 8 23c0-.9.2-2.4 1.4-3.7-.6-2.7-.5-4.8.4-6.2.4-.7.9-1 1.3-1.3.8-3.1 4.1-4.5 4.9-4.9.8-.6 4.5-3.1 10.7-2.9 8.4.3 13.6 5.5 14.2 14.2.1.8.1 1.6.1 2.4 0 6.5-2.3 10.5-3.5 12.1 4.5 3.1 4.5 3.6 4.5 4.1.1 1.3-1.1 5.2-1.5 6.4-.1.5-.5.8-.9.8zM9.1 42h29.7c.6-1.9 1.1-3.9 1.2-4.7-.6-.6-2.7-2.2-4.6-3.4-.2-.2-.4-.4-.4-.7s.1-.6.3-.8c0 0 3.6-3.7 3.7-11.7 0-.7 0-1.5-.1-2.3C38.2 8 30.9 6.2 26.6 6c-6-.2-9.4 2.5-9.5 2.6-.1.1-.2.1-.3.2 0 0-3.5 1.2-3.8 3.9-.1.4-.4.8-.8.9-.7.2-1.8 1.7-.7 5.9.1.4 0 .8-.3 1-1 .8-1.1 2-1.1 2.6 0 1.2.4 2.4 1 3 1.2 1.3 2.1 1.1 2.1 1.1.3-.1.6 0 .8.1.2.2.4.4.4.7 0 0 .5 3.1 1.8 5.1.1.2.2.5.1.8-.1.3-.2.5-.5.6-.7.4-6.3 4-7.7 5l1 2.5zm31-4.6z"/>
    </symbol>
    <symbol viewBox="0 0 48 48" id="icon-linkedin">
      <path fill="#0288D1" d="M42 37a5 5 0 0 1-5 5H11a5 5 0 0 1-5-5V11a5 5 0 0 1 5-5h26a5 5 0 0 1 5 5v26z"/>
      <path fill="#FFF" d="M12 19h5v17h-5zm2.485-2h-.028C12.965 17 12 15.888 12 14.499 12 13.08 12.995 12 14.514 12c1.521 0 2.458 1.08 2.486 2.499C17 15.887 16.035 17 14.485 17zM36 36h-5v-9.099c0-2.198-1.225-3.698-3.192-3.698-1.501 0-2.313 1.012-2.707 1.99-.144.35-.101 1.318-.101 1.807v9h-5V19h5v2.616C25.721 20.5 26.85 19 29.738 19c3.578 0 6.261 2.25 6.261 7.274L36 36z"/>
    </symbol>
    <symbol viewBox="0 2 48 48" id="icon-linux">
      <path fill="#ECEFF1" d="M20.1 18.2l.1 2.3-1.6 3-2.5 4.9-.5 4.1 1.8 5.8 4.1 2.3h6.2l5.8-4.4 2.6-6.9-6-7.3-1.7-4.1z"/>
      <path fill="#263238" d="M34.3 23.9c-1.6-2.3-2.9-3.7-3.6-6.6-.7-2.9.2-2.1-.4-4.6-.3-1.3-.8-2.2-1.3-2.9-.6-.7-1.3-1.1-1.7-1.2-.9-.5-3-1.3-5.6.1-2.7 1.4-2.4 4.4-1.9 10.5 0 .4-.1.9-.3 1.3-.4.9-1.1 1.7-1.7 2.4-.7 1-1.4 2-1.9 3.1-1.2 2.3-2.3 5.2-2 6.3.5-.1 6.8 9.5 6.8 9.7.4-.1 2.1-.1 3.6-.1 2.1-.1 3.3-.2 5 .2 0-.3-.1-.6-.1-.9 0-.6.1-1.1.2-1.8.1-.5.2-1 .3-1.6-1 .9-2.8 1.9-4.5 2.2-1.5.3-4-.2-5.2-1.7.1 0 .3 0 .4-.1.3-.1.6-.2.7-.4.3-.5.1-1-.1-1.3-.2-.3-1.7-1.4-2.4-2-.7-.6-1.1-.9-1.5-1.3l-.8-.8c-.2-.2-.3-.4-.4-.5-.2-.5-.3-1.1-.2-1.9.1-1.1.5-2 1-3 .2-.4.7-1.2.7-1.2s-1.7 4.2-.8 5.5c0 0 .1-1.3.5-2.6.3-.9.8-2.2 1.4-2.9s2.1-3.3 2.2-4.9c0-.7.1-1.4.1-1.9-.4-.4 6.6-1.4 7-.3.1.4 1.5 4 2.3 5.9.4.9.9 1.7 1.2 2.7.3 1.1.5 2.6.5 4.1 0 .3 0 .8-.1 1.3.2 0 4.1-4.2-.5-7.7 0 0 2.8 1.3 2.9 3.9.1 2.1-.8 3.8-1 4.1.1 0 2.1.9 2.2.9.4 0 1.2-.3 1.2-.3.1-.3.4-1.1.4-1.4.7-2.3-1-6-2.6-8.3z"/>
      <path fill="#ECEFF1" d="M21.6 13.3a1.3 2 0 1 0 0 4 1.3 2 0 1 0 0-4zm4.5-.4a1.7 2.3 0 1 0 0 4.6 1.7 2.3 0 1 0 0-4.6z"/>
      <path fill="#212121" d="M20.938 15.612a.7 1.2-7.204 1 0 1.389-.175.7 1.2-7.204 1 0-1.389.175zM26 14.3a1 1.3 0 1 0 0 2.6 1 1.3 0 1 0 0-2.6z"/>
      <path fill="#FFC107" d="M39.3 37.6c-.4-.2-1.1-.5-1.7-1.4-.3-.5-.2-1.9-.7-2.5-.3-.4-.7-.2-.8-.2-.9.2-3 1.6-4.4 0-.2-.2-.5-.5-1-.5s-.7.2-.9.6-.2.7-.2 1.7c0 .8 0 1.7-.1 2.4-.2 1.7-.5 2.7-.5 3.7 0 1.1.3 1.8.7 2.1.3.3.8.5 1.9.5 1.1 0 1.8-.4 2.5-1.1.5-.5.9-.7 2.3-1.7 1.1-.7 2.8-1.6 3.1-1.9.2-.2.5-.3.5-.9 0-.5-.4-.7-.7-.8zm-20.1.3c-1-1.6-1.1-1.9-1.8-2.9-.6-1-1.9-2.9-2.7-2.9-.6 0-.9.3-1.3.7-.4.4-.8 1.3-1.5 1.8-.6.5-2.3.4-2.7 1-.4.6.4 1.5.4 3 0 .6-.5 1-.6 1.4-.1.5-.2.8 0 1.2.4.6.9.8 4.3 1.5 1.8.4 3.5 1.4 4.6 1.5 1.1.1 3 0 3-2.7.1-1.6-.8-2-1.7-3.6zm1.9-18.1c-.6-.4-1.1-.8-1.1-1.4 0-.6.4-.8 1-1.3.1-.1 1.2-1.1 2.3-1.1s2.4.7 2.9.9c.9.2 1.8.4 1.7 1.1-.1 1-.2 1.2-1.2 1.7-.7.2-2 1.3-2.9 1.3-.4 0-1 0-1.4-.1-.3-.1-.8-.6-1.3-1.1z"/>
      <path fill="#634703" d="M20.9 19c.2.2.5.4.8.5.2.1.5.2.5.2h.9c.5 0 1.2-.2 1.9-.6.7-.3.8-.5 1.3-.7.5-.3 1-.6.8-.7-.2-.1-.4 0-1.1.4-.6.4-1.1.6-1.7.9-.3.1-.7.3-1 .3h-.9c-.3 0-.5-.1-.8-.2-.2-.1-.3-.2-.4-.2-.2-.1-.6-.5-.8-.6 0 0-.2 0-.1.1l.6.6zm3-2.2c.1.2.3.2.4.3.1.1.2.1.2.1.1-.1 0-.3-.1-.3 0-.2-.5-.2-.5-.1zm-1.6.2c0 .1.2.2.2.1.1-.1.2-.2.3-.2.2-.1.1-.2-.2-.2-.2.1-.2.2-.3.3z"/>
      <path fill="#455A64" d="M32 34.7v.3c.2.4.7.5 1.1.5.6 0 1.2-.4 1.5-.8 0-.1.1-.2.2-.3.2-.3.3-.5.4-.6 0 0-.1-.1-.1-.2-.1-.2-.4-.4-.8-.5-.3-.1-.8-.2-1-.2-.9-.1-1.4.2-1.7.5 0 0 .1 0 .1.1.2.2.3.4.3.7.1.2 0 .3 0 .5z"/>
    </symbol>
    <symbol viewBox="0 0 48 48" id="icon-mailbox-with-letter">
      <path fill="#2196F3" d="M45 34V18a8 8 0 0 0-8-8H16a8 8 0 0 0-8 8v16h37z"/>
      <path fill="#2196F3" d="M11 33a1 1 0 0 1-1 1H4a1 1 0 0 1 0-2h6a1 1 0 0 1 1 1z"/>
      <path fill="#0D47A1" d="M16 12c-3.309 0-6 2.691-6 6v14h12V18c0-3.309-2.691-6-6-6z"/>
      <path fill="#FF3D00" d="M28 4h6v4h-6z"/>
      <path fill="#FF3D00" d="M28 6h2v11h-2z"/>
      <path fill="#FF3D00" d="M29 16a2 2 0 1 0 0 4 2 2 0 1 0 0-4z"/>
      <path fill="#DD2C00" d="M29 17a1 1 0 1 0 0 2 1 1 0 1 0 0-2z"/>
      <path fill="#FFCC80" d="M25 34h5v10h-5z"/>
      <path fill="#FFA726" d="M25 34h5v2h-5z"/>
      <path fill="#CFD8DC" d="M13 21v9c0 1.025.975 2 2 2h7V19h-7c-1.025 0-2 .975-2 2z"/>
      <path fill="#78909C" d="M13 21v1l9 7v-2l-8.782-6.831A1.813 1.813 0 0 0 13 21z"/>
    </symbol>
    <symbol viewBox="0 0 48 48" id="icon-mongodb">
      <path fill="#5d4037" d="M42 17.3C42 37.8 24 44 24 44S6 37.8 6 17.3c0-2.5.2-4.6.4-6.3.3-2.5 2-4.5 4.4-5.1C13.9 5 18.8 4 24 4s10.1 1 13.3 1.9c2.4.6 4.1 2.7 4.4 5.1.1 1.7.3 3.9.3 6.3z"/>
      <path fill="#4caf50" d="M24 7c4.9 0 9.5 1 12.5 1.8 1.2.3 2 1.3 2.2 2.6.2 1.9.3 3.9.3 5.9 0 15.6-11.5 21.9-15 23.4-3.5-1.6-15-7.9-15-23.4 0-2 .1-4 .3-5.9.1-1.3 1-2.3 2.2-2.6C14.5 8 19.1 7 24 7m0-3c-5.2 0-10.1 1-13.3 1.9-2.3.6-4.1 2.7-4.3 5.1-.2 1.7-.4 3.9-.4 6.3C6 37.8 24 44 24 44s18-6.2 18-26.7c0-2.5-.2-4.6-.4-6.3-.3-2.5-2-4.5-4.4-5.1C34.1 5 29.2 4 24 4z"/>
      <path fill="#dcedc8" d="M23 28h2v8h-2z"/>
      <path fill="#4caf50" d="M24 10s-6 5-6 13c0 5.2 3.3 8.5 5 10l1-3 1 3c1.7-1.5 5-4.8 5-10 0-8-6-13-6-13z"/>
      <path fill="#81c784" d="M24 10s-6 5-6 13c0 5.2 3.3 8.5 5 10l1-3V10z"/>
    </symbol>
    <symbol viewBox="0 0 48 48" id="icon-mysql">
      <path fill="#D1C4E9" d="M41 4H7c-1.1 0-2 .9-2 2v8c0 1.1.9 2 2 2h34c1.1 0 2-.9 2-2V6c0-1.1-.9-2-2-2m0 14H7c-1.1 0-2 .9-2 2v8c0 1.1.9 2 2 2h34c1.1 0 2-.9 2-2v-8c0-1.1-.9-2-2-2m0 14H7c-1.1 0-2 .9-2 2v8c0 1.1.9 2 2 2h34c1.1 0 2-.9 2-2v-8c0-1.1-.9-2-2-2"/>
      <path fill="#D1C4E9" d="M24 8a16 16 0 1 0 0 32 16 16 0 1 0 0-32z"/>
      <path fill="#512DA8" d="M25.6 26.5c0-.4-.1-.7-.3-.9-.2-.2-.6-.4-1.1-.6-.9-.4-1.6-.8-2-1.3-.4-.5-.6-1.1-.6-1.8 0-.8.3-1.5.8-2 .6-.5 1.3-.8 2.1-.8.6 0 1.1.1 1.5.4.5.3.8.6 1 1.1.2.5.4 1 .4 1.6h-1.9c0-.5-.1-.8-.3-1.1-.2-.2-.5-.4-.8-.4-.3 0-.6.1-.8.3-.2.2-.3.5-.3.8 0 .3.1.5.3.7.2.2.6.4 1.1.7.9.3 1.6.8 2 1.3.4.5.6 1.2.6 1.9 0 .9-.3 1.5-.8 2s-1.2.7-2.1.7c-.6 0-1.2-.1-1.7-.4-.5-.3-.9-.6-1.2-1.1-.3-.5-.4-1.1-.4-1.7H23c0 .6.1 1 .3 1.3.2.3.6.4 1 .4.9 0 1.3-.4 1.3-1.1zm9.8-1.6c0 1.6-.4 2.8-1.3 3.6l1.3 1.2-1.2 1.2-1.7-1.7H32c-1.1 0-1.9-.4-2.5-1.1-.6-.8-.9-1.8-.9-3.2v-1.6c0-1.4.3-2.4.9-3.2.6-.8 1.4-1.2 2.5-1.2 1 0 1.9.4 2.5 1.1.6.7.9 1.8.9 3.1v1.8zm-1.9-1.6c0-.9-.1-1.6-.4-2-.2-.4-.6-.7-1.1-.7-.5 0-.9.2-1.1.6-.2.4-.4 1.1-.4 1.9v1.6c0 .9.1 1.6.4 2 .2.4.6.6 1.1.6.5 0 .9-.2 1.1-.6.2-.4.4-1.1.4-2v-1.4zm5.2 4.1H42v1.7h-5.2v-10h1.9v8.3zM8.5 19l1.8 7.2L12 19h2.5v10h-1.9v-2.7l.2-4.2-1.9 6.9H9.6l-1.9-6.8.2 4.2V29H6V19h2.5zm9.8 9l.9-4h2l-2.3 8.2c-.3 1.2-1 1.8-1.9 1.8-.2 0-.5 0-.8-.1v-1.5h.2c.3 0 .5-.1.6-.2s.3-.3.3-.6l.1-.5-2-7.2h2l.9 4.1z"/>
    </symbol>
    <symbol viewBox="0 0 48 48" id="icon-nodejs">
      <path fill="#388e3c" d="M17.204 19.122l-4.907 2.715a.563.563 0 0 0-.297.492v5.433c0 .203.113.39.297.492l4.908 2.717c.183.101.41.101.593 0l4.907-2.717a.566.566 0 0 0 .295-.492v-5.433a.564.564 0 0 0-.297-.492l-4.906-2.715a.613.613 0 0 0-.594 0m25.248 4.891l-.818.452a.093.093 0 0 0-.049.082v.906c0 .034.019.065.049.082l.818.453a.102.102 0 0 0 .099 0l.818-.453a.095.095 0 0 0 .049-.082v-.906a.094.094 0 0 0-.05-.082l-.818-.452c-.015-.009-.032-.013-.049-.013s-.034.004-.049.013"/>
      <path fill="#37474f" d="M35.751 13.364l-2.389-1.333a.243.243 0 0 0-.361.212L33 20.295l-2.203-1.219a.613.613 0 0 0-.594 0h.001l-4.907 2.715a.563.563 0 0 0-.297.491v5.433c0 .203.113.39.297.492l4.908 2.717c.183.101.41.101.593 0l4.907-2.717a.565.565 0 0 0 .295-.492V13.788a.487.487 0 0 0-.249-.424zm-2.885 13.094l-2.23 1.235a.28.28 0 0 1-.269 0l-2.231-1.235a.255.255 0 0 1-.136-.224v-2.47c0-.092.051-.177.135-.224l2.231-1.234h-.001a.29.29 0 0 1 .27 0l2.23 1.234a.259.259 0 0 1 .135.225v2.47a.257.257 0 0 1-.134.223z"/>
      <path fill="#2e7d32" d="M17.204 19.122L12 27.762c0 .203.113.39.297.492l4.908 2.717c.183.101.41.101.593 0L23 22.329a.564.564 0 0 0-.297-.492l-4.906-2.715a.613.613 0 0 0-.594 0"/>
      <path fill="#4caf50" d="M17.204 19.122l-4.907 2.715a.563.563 0 0 0-.297.492l5.204 8.642c.183.101.41.101.593 0l4.907-2.717a.565.565 0 0 0 .296-.492l-5.203-8.64a.613.613 0 0 0-.594 0"/>
      <path fill="#37474f" d="M47.703 21.791l-4.906-2.715a.613.613 0 0 0-.594 0h.001l-4.907 2.715a.574.574 0 0 0-.297.503v5.411c0 .209.114.402.297.503l4.908 2.717a.613.613 0 0 0 .593 0l2.263-1.253a.3.3 0 0 0-.002-.526l-4.924-2.687a.263.263 0 0 1-.135-.228v-2.466c0-.092.05-.177.13-.221l2.235-1.236h-.001a.29.29 0 0 1 .27 0l2.235 1.237c.08.044.13.129.13.221v2.012a.241.241 0 0 0 .363.208l2.398-1.393a.483.483 0 0 0 .24-.417v-1.88a.576.576 0 0 0-.297-.505zm-37 0l-4.906-2.715a.613.613 0 0 0-.594 0h.001L.297 21.791a.574.574 0 0 0-.297.503v7.465a.241.241 0 0 0 .363.208l2.398-1.393A.482.482 0 0 0 3 28.157v-4.393c0-.092.05-.177.13-.221l2.235-1.236a.29.29 0 0 1 .27 0l2.235 1.237c.08.044.13.129.13.221v4.393a.48.48 0 0 0 .24.417l2.398 1.393a.246.246 0 0 0 .242.001.245.245 0 0 0 .12-.21v-7.464a.576.576 0 0 0-.297-.504z"/>
    </symbol>
    <symbol viewBox="0 0 48 48" id="icon-npm">
      <path fill="#d50000" d="M0 15h48v17H24v3H13v-3H0V15z"/>
      <path fill="#fff" d="M3 29h5v-8h3v8h2V18H3zm13-11v14h5v-3h5V18H16zm8 8h-3v-5h3v5zm5-8v11h5v-8h3v8h3v-8h3v8h2V18z"/>
    </symbol>
    <symbol viewBox="0 0 48 48" id="icon-pdf">
      <path fill="#ff5722" d="M40 45H8V3h22l10 10v32z"/>
      <path fill="#fbe9e7" d="M38.5 14H29V4.5l9.5 9.5z"/>
      <path fill="#fff" d="M16 39c-.4 0-.7-.1-1-.2-1.1-.6-1.2-1.5-1-2.2.4-1.2 2.6-2.7 5.5-4 1.3-2.4 2.3-4.9 2.9-7-1-1.9-1.5-3.7-1.5-5 0-.7.2-1.3.5-1.8.4-.5 1-.8 1.8-.8.9 0 1.6.5 1.9 1.4.5 1.2.2 3.4-.5 5.9 1 1.7 2.2 3.3 3.5 4.5 1.9-.4 3.6-.6 4.7-.4 1.9.3 2.2 1.6 2.2 2.1 0 2.1-2.2 2.1-3 2.1-1.5 0-3-.6-4.3-1.7-2.4.6-4.8 1.4-6.7 2.3-1 1.7-2 3.1-2.9 3.9-.9.7-1.6.9-2.1.9zm1.2-2.9c-.5.3-.9.6-1.1.9.2-.1.6-.3 1.1-.9zm13.6-4.7c.4.1.8.2 1.2.2.6 0 .9-.1 1-.1-.1-.1-.8-.3-2.2-.1zm-7-3.6c-.4 1.2-1 2.5-1.5 3.7 1.2-.4 2.4-.8 3.6-1.1-.8-.8-1.5-1.7-2.1-2.6zm-.6-7.8h-.1c-.1.1-.2.8.2 2.3.1-1.2.1-2.1-.1-2.3z"/>
    </symbol>
    <symbol viewBox="0 0 48 48" id="icon-postgreesql">
      <path fill="#fff" d="M44.083 29.79c-.183-.829-.935-1.796-2.452-1.796-.31 0-.649.039-1.035.119-.708.146-1.311.217-1.842.241 4.133-7.04 6.816-16.819 4.159-20.214-3.501-4.473-8.214-5.141-10.711-5.141L31.967 3c-.929.015-1.893.129-2.863.339l-3.583.774A14.004 14.004 0 0 0 24.018 4h-.046l-.152-.001c-1.593 0-3.046.338-4.341.973l-1.251-.493c-1.72-.678-4.308-1.485-6.868-1.485-.144 0-.287.003-.431.008-2.522.091-4.688 1.048-6.265 2.767C2.696 7.915 1.8 11.054 2.003 15.1c.01.209 2.458 20.9 9.397 20.9h.025l.064-.001c.901-.022 1.76-.384 2.563-1.077.613.46 1.406.732 2.145.84.488.115 1.366.278 2.418.278 1.284 0 2.442-.263 3.44-.738-.001.88-.006 1.994-.016 3.418l-.001.075.005.075c.097 1.419.342 2.698.711 3.701 1.051 2.859 2.866 4.434 5.111 4.434.093 0 .188-.003.284-.009 1.846-.114 3.717-1.151 5.004-2.772 1.393-1.755 1.715-3.607 1.839-5.026l.008-.087v-4.167l.103.01.436.038.042.004.042.002c.124.006.252.008.381.008 1.507 0 3.362-.391 4.616-.974 1.199-.556 3.939-2.084 3.463-4.242z"/>
      <path fill="#0277bd" d="M33 34c0-.205.012-.376.018-.565L33 33l.032-.022c.149-2.673.886-3.703 1.675-4.29-.11-.153-.237-.318-.356-.475-.333-.437-.748-.979-1.192-1.674l-.082-.158c-.067-.164-.229-.447-.435-.819-1.183-2.14-3.645-6.592-1.96-9.404.738-1.232 2.122-1.942 4.121-2.117-.817-2.323-3.878-7.926-10.818-8.041h-.006c-6.041-.098-8.026 5.392-8.672 8.672.89-.377 1.906-.606 2.836-.606h.043c2.29.017 3.865 1.239 4.323 3.354.335 1.552.496 2.91.492 4.153-.01 2.719-.558 4.149-1.042 5.411l-.154.408c-.124.334-.255.645-.379.937a12.31 12.31 0 0 0-.318.802c.484.11.864.265 1.125.38l.151.066c.047.02.094.043.137.069.848.516 1.376 1.309 1.489 2.233.061.498.051 3.893.03 6.855.087 1.285.305 2.364.593 3.146.409 1.114 1.431 3.241 3.394 3.119 1.37-.085 2.687-.919 3.561-2.019.938-1.181 1.284-2.487 1.414-3.958V34z"/>
      <path fill="#0277bd" d="M15.114 28.917c-1.613-1.683-2.399-3.947-2.104-6.056.285-2.035.124-4.027.037-5.098a11.082 11.082 0 0 1-.047-.77c0-.008.002-.015.003-.023l-.002-.011c.121-3.021 1.286-7.787 4.493-10.62C15.932 5.724 13.388 4.913 11 5c-3.742.136-7.364 2.724-7 10 .137 2.73 3.222 19.103 7.44 19 .603-.015 1.229-.402 1.872-1.176a93.536 93.536 0 0 1 2.708-3.104 7.618 7.618 0 0 1-.906-.803zm21.909-14.186c.015.154.002.286-.022.408.031.92-.068 1.813-.169 2.677-.074.636-.15 1.293-.171 1.952-.021.645.07 1.282.166 1.956.225 1.578.459 3.359-.765 5.437.225.296.423.571.581.837 4.61-7.475 6.468-16.361 4.695-18.626-2.683-3.428-6.397-4.42-9.339-4.372-.921.015-1.758.139-2.473.294 5.076 2.46 7.337 7.732 7.497 9.437zM41 30.071c-2.665.55-3.947.257-4.569-.126-.1.072-.2.133-.293.19-.372.225-.961.583-1.105 2.782.083.016.156.025.246.044l.435.039c1.32.06 3.049-.31 4.063-.781 2.185-1.014 3.376-2.592 1.223-2.148zm-18.977 2.048c-.037-.298-.198-.539-.492-.732l-.108-.047c-.361-.159-.77-.34-1.423-.34h-.004c-.127.01-.253.019-.38.019-.052 0-.103-.007-.155-.009-.474.365-1.148.647-2.816.99-2.98.759-1.221 1.655-.078 1.794 1.106.277 3.735.614 5.481-.809a13.664 13.664 0 0 0-.025-.866z"/>
      <path fill="#0277bd" d="M20.681 18.501c-.292.302-.753.566-1.262.484-.828-.134-1.463-1.133-1.417-1.508.044-.374.751-.569 1.578-.435.287.047.548.128.768.228-.32-.688-.899-1.085-1.782-1.182-1.565-.174-3.226.644-3.56 1.097.007.11.02.251.033.417.093 1.147.265 3.284-.05 5.537-.208 1.485.393 3.169 1.567 4.395.757.79 1.641 1.29 2.513 1.438.111-.478.309-.944.513-1.425.113-.265.233-.547.346-.852l.162-.427c.443-1.155.9-2.35.909-4.703.004-.905-.107-1.938-.318-3.064zm14.166 3.506c-.104-.729-.211-1.484-.185-2.303.023-.742.105-1.442.184-2.119.062-.533.11-1.045.138-1.55-1.289.107-2.145.479-2.551 1.108.168-.057.358-.102.568-.129.892-.116 1.543.141 1.618.637.055.363-.253.705-.388.836a1.75 1.75 0 0 1-.981.488 1.559 1.559 0 0 1-.192.012c-.353 0-.69-.121-.949-.3.112 1.973 1.567 4.612 2.283 5.907.153.277.271.498.369.688.393-1.119.248-2.139.086-3.275z"/>
    </symbol>
    <symbol viewBox="0 0 48 48" id="icon-python">
      <path fill="#0277BD" d="M24.047 5c-1.555.005-2.633.142-3.936.367-3.848.67-4.549 2.077-4.549 4.67V14h9v2H10.87c-2.636 0-4.943 1.242-5.674 4.219-.826 3.417-.863 5.557 0 9.125C5.851 32.005 7.294 34 9.931 34h3.632v-5.104c0-2.966 2.686-5.896 5.764-5.896h7.236c2.523 0 5-1.862 5-4.377v-8.586c0-2.439-1.759-4.263-4.218-4.672.061-.006-1.756-.371-3.298-.365zm-4.984 4c.821 0 1.5.677 1.5 1.502a1.5 1.5 0 0 1-1.5 1.498 1.49 1.49 0 0 1-1.5-1.498A1.5 1.5 0 0 1 19.063 9z"/>
      <path fill="#FFC107" d="M23.078 43c1.555-.005 2.633-.142 3.936-.367 3.848-.67 4.549-2.077 4.549-4.67V34h-9v-2h13.693c2.636 0 4.943-1.242 5.674-4.219.826-3.417.863-5.557 0-9.125C41.274 15.995 39.831 14 37.194 14h-3.632v5.104c0 2.966-2.686 5.896-5.764 5.896h-7.236c-2.523 0-5 1.862-5 4.377v8.586c0 2.439 1.759 4.263 4.218 4.672-.061.006 1.756.371 3.298.365zm4.985-4c-.821 0-1.5-.677-1.5-1.502a1.5 1.5 0 0 1 1.5-1.498c.837 0 1.5.664 1.5 1.498 0 .822-.664 1.502-1.5 1.502z"/>
    </symbol>
    <symbol viewBox="0 0 64 64" id="icon-raspberry-pi">
      <path fill="#72caaf" d="M52.83 3.5c-2.26-1-10-4-15.6-1.6a9.8 9.8 0 0 0-1.07.54 7.92 7.92 0 0 0-4 5.41 7.92 7.92 0 0 0-4-5.41 9.8 9.8 0 0 0-1.07-.54c-5.6-2.38-13.35.62-15.6 1.6a.76.76 0 0 0-.41 1c.85 2.32 4 10 9.64 12.42a9.8 9.8 0 0 0 1.13.4c5.44 1.56 15.2 1.56 20.64 0a9.8 9.8 0 0 0 1.13-.4c5.6-2.38 8.79-10.11 9.64-12.42a.76.76 0 0 0-.43-1z"/>
      <path fill="#5dbc9d" d="M15 6.45a.76.76 0 0 1 .41-1c2.05-.89 8.64-3.44 14-2.11a9.31 9.31 0 0 0-1.35-1 9.8 9.8 0 0 0-1.07-.54c-5.6-2.38-13.35.62-15.6 1.6a.76.76 0 0 0-.41 1c.85 2.32 4 10 9.64 12.42a9.8 9.8 0 0 0 1.13.4l.4.1c-4-3.14-6.39-8.91-7.15-10.87zM52.83 3.5c-2.26-1-10-4-15.6-1.6a9.8 9.8 0 0 0-1.07.54 9.31 9.31 0 0 0-1.35 1c5.39-1.33 12 1.21 14 2.11a.76.76 0 0 1 .41 1c-.72 2-3.1 7.73-7.18 10.93l.4-.1a9.8 9.8 0 0 0 1.13-.4c5.6-2.38 8.79-10.11 9.64-12.42a.76.76 0 0 0-.38-1.06z"/>
      <path fill="#ed7899" d="M53 27.79a6.81 6.81 0 0 0-.87-.65s.71-7.49-5-9.89a3.1 3.1 0 0 1-1-.66c-1-1-3.71-3.49-6.18-3.53h-1.32a3.88 3.88 0 0 1-1.57-.2 15.47 15.47 0 0 0-10.11 0 3.89 3.89 0 0 1-1.55.2h-1.32c-2.45 0-5.33 2.2-6.11 3.19a3.93 3.93 0 0 1-1.23 1c-5.87 3.17-4.88 9.94-4.88 9.94a6.83 6.83 0 0 0-.89.67 8.45 8.45 0 0 0-3.19 6 9 9 0 0 0 .84 5.27c.07.15.16.3.24.45s.2.35.31.51.38.57.6.86a3.23 3.23 0 0 1 .56 1.24 24 24 0 0 0 .87 2.74 3.83 3.83 0 0 1 .2 1 10.5 10.5 0 0 0 1.21 4 4.1 4.1 0 0 0 .32.51 9 9 0 0 0 4.55 3.41A3.64 3.64 0 0 0 18 54a22.61 22.61 0 0 0 5.66 3.32l1.13.79a10.24 10.24 0 0 0 7.15 2.93h.13a10.24 10.24 0 0 0 7.15-2.93l1.13-.79A22.61 22.61 0 0 0 46 54a3.64 3.64 0 0 0 .52-.19 9 9 0 0 0 4.55-3.41 4.1 4.1 0 0 0 .32-.51 10.5 10.5 0 0 0 1.21-4 3.83 3.83 0 0 1 .2-1 20.68 20.68 0 0 0 1-3.5c.23-.26.42-.52.61-.78a7.18 7.18 0 0 0 1.18-2.08 9 9 0 0 0 .62-4.61A8.48 8.48 0 0 0 53 27.79z"/>
      <path fill="#e0678f" d="M53.72 41.94c-2-.54-6.59-1.06-10.16 3.94s-1.66 10.32 3 7.66 5.62-4.05 6.21-6.26a50.64 50.64 0 0 0 .95-5.34zM12 42.56c4-3.14 13.68 6.31 9.49 11.19S8.46 45.31 12 42.56zm12.58 14.69c0 6.25 15.23 3.56 15.23.25s-15.23-3.75-15.23-.25zM13.34 33.56c0 5.53-2.9 7.84-2.9 7.84S8 39.42 8 34.24a7.08 7.08 0 0 1 4.28-6.74zm37.59 0c0 5.53 2.9 7.84 2.9 7.84s2.44-2 2.44-7.16A7.08 7.08 0 0 0 52 27.5z"/>
      <path fill="#f283a5" d="M25.64 44.74c0 9.11 12.75 8.11 12.75.53s-12.75-8.85-12.75-.53zm.02-25.55c0 3.86 12.64 4.94 12.64.36S25.66 14 25.66 19.19zm-2.63 4.65a6.13 7.27 0 1 0 0 14.54 6.13 7.27 0 1 0 0-14.54zm17.78.12a6.13 7.27 0 1 0 0 14.54 6.13 7.27 0 1 0 0-14.54z"/>
      <path fill="#8d6c9f" d="M39.86 10.35a1 1 0 0 0 .4-.08l1.36-.56 2.84-1.13a1 1 0 1 0-.74-1.86l-2.83 1.12-1.42.59a1 1 0 0 0 .4 1.92z"/>
      <path fill="#8d6c9f" d="M56.55 38.93c0-.11.07-.22.11-.32s.08-.23.12-.34a9.83 9.83 0 0 0 .48-4.07v-.29a9.46 9.46 0 0 0-3.7-6.91l-.4-.32c.05-2-.25-8-5.61-10.31a2 2 0 0 1-.58-.4c4.11-3.41 6.48-9.17 7.2-11.13a1.87 1.87 0 0 0 .11-.61 1.76 1.76 0 0 0-1.06-1.61c-2.34-1-10.43-4.14-16.39-1.6a10.79 10.79 0 0 0-1.18.59A9.5 9.5 0 0 0 32.14 5a9.55 9.55 0 0 0-3.5-3.44A11.92 11.92 0 0 0 27.45 1c-6-2.54-14 .58-16.39 1.6a1.76 1.76 0 0 0-1 2.22c.71 1.94 3 7.51 7 10.94a2.88 2.88 0 0 1-.81.59c-5.3 2.86-5.53 8.43-5.45 10.32l-.4.33a9.44 9.44 0 0 0-3.64 6.9v.47A10.09 10.09 0 0 0 7.52 39c.05.13.1.27.16.4l.05.13c.08.16.17.33.26.48H8c.09.16.18.31.27.46l.06.11c.2.31.42.62.65.93a2.21 2.21 0 0 1 .38.86 23.92 23.92 0 0 0 .9 2.85 2.75 2.75 0 0 1 .15.75c0 .26.06.52.1.78a11 11 0 0 0 .49 1.91 12.22 12.22 0 0 0 .49 1.2l.12.26c0 .08.08.17.12.25l.08.12.13.25.15.19V51c.18.24.36.46.54.67l.2.23c.25.28.5.53.75.76l.16.14a9.29 9.29 0 0 0 3.35 1.95 3.77 3.77 0 0 0 .41.16 23.91 23.91 0 0 0 5.65 3.31l.94.66.23.21.28.25.42.32.28.21.43.28.43.27.35.19.63.32.27.11c.26.11.53.22.81.32l.24.07c.29.1.59.19.9.26l.29.06c.29.06.58.11.89.15h2.73c.26 0 .52-.08.78-.13l.43-.08c.23-.06.45-.13.67-.2l.46-.14c.21-.08.41-.16.61-.25l.44-.18a12.42 12.42 0 0 0 1.8-1c.25-.18.49-.35.69-.53l.17-.15.34-.3.94-.66a23.91 23.91 0 0 0 5.65-3.31 3.77 3.77 0 0 0 .41-.16 9.9 9.9 0 0 0 5-3.76 3.73 3.73 0 0 0 .4-.63A11.38 11.38 0 0 0 53.59 46a3 3 0 0 1 .16-.78 21.57 21.57 0 0 0 1-3.35c.17-.2.31-.4.44-.58a8.08 8.08 0 0 0 1.27-2.19zm-1.86-.74a6.62 6.62 0 0 1-1 1.74 16.54 16.54 0 0 1-1.61-6.41c-.27-2.85 0-4.42.25-5h.05a7.53 7.53 0 0 1 2.85 5.47v.35a9.76 9.76 0 0 1-.38 3.19c-.03.27-.08.47-.16.66zM12.07 4.32c2.39-1 9.53-3.66 14.6-1.5a9.51 9.51 0 0 1 1 .48A6.89 6.89 0 0 1 31.16 8a1 1 0 0 0 2 0 6.9 6.9 0 0 1 3.49-4.7 9.51 9.51 0 0 1 1-.48c5.07-2.16 12.21.49 14.61 1.5-.77 2.06-3 7.35-6.74 10.27-1.6-1.32-3.55-2.5-5.43-2.53h-1.54a2.71 2.71 0 0 1-1.16-.06 16.6 16.6 0 0 0-7-.82 29.77 29.77 0 0 0-10-4.48 1 1 0 0 0-.43 2 29.63 29.63 0 0 1 7.58 3.06c-.3.08-.61.18-.91.28a2.88 2.88 0 0 1-1.16.15H24.1a10.13 10.13 0 0 0-5.53 2.31c-3.57-3.08-5.75-8.17-6.5-10.18zm-.17 29.19a16.43 16.43 0 0 1-1.61 6.4l-.1-.14-.19-.27c-.09-.13-.17-.28-.26-.44a4.14 4.14 0 0 1-.22-.42c-.11-.23-.19-.47-.28-.7a9.66 9.66 0 0 1-.5-3.4v-.63a7.5 7.5 0 0 1 2.84-5.34c.32.53.59 2.1.32 4.94zm2 9.33h.1c1.47 0 3.51 1.27 5.21 3.25a8.65 8.65 0 0 1 1.94 5.68 1.74 1.74 0 0 1-.39 1 3.8 3.8 0 0 1-2.79.12h-.11a8 8 0 0 1-4-3.05 2.87 2.87 0 0 1-.18-.29c-.15-.28-.28-.56-.4-.83s-.17-.43-.25-.64-.12-.34-.17-.5-.09-.36-.13-.54-.07-.32-.1-.47 0-.28-.06-.42a3.92 3.92 0 0 1 .43-3.07 1.87 1.87 0 0 1 .91-.23zm24.58 14.62c-.1.11-.23.22-.36.34a10.14 10.14 0 0 1-3.57 1.93h-.17l-.64.15-.46.08H30.78q-.37 0-.74-.13l-.3-.07-.55-.16-.5-.18-.3-.12a10 10 0 0 1-2.53-1.56c-.12-.11-.25-.22-.35-.33a1.94 1.94 0 0 1-.25-.32c.51-.66 3.7-1.66 6.6-1.66H32c3-.06 6.26 1 6.72 1.66a2 2 0 0 1-.24.37zm13.38-12.9a4.68 4.68 0 0 0-.26 1.27 9.73 9.73 0 0 1-1.1 3.62 3 3 0 0 1-.24.38 8 8 0 0 1-4 3.05h-.11a2.34 2.34 0 0 1-.36.13l-.12.06a1 1 0 0 0-.34 0 3.4 3.4 0 0 1-1.93-.21 1.64 1.64 0 0 1-.48-1.1 8.65 8.65 0 0 1 1.94-5.68 1 1 0 0 0-1.54-1.28A10.56 10.56 0 0 0 40.9 52a3.48 3.48 0 0 0 1.35 2.52 3.85 3.85 0 0 0 .79.34 19 19 0 0 1-2.54 1.32 2.36 2.36 0 0 0-.35-.46c-1.5-1.55-5.63-2.25-8-2.25h-.22c-2.4 0-6.53.7-8 2.25a2.39 2.39 0 0 0-.35.46 19.06 19.06 0 0 1-2.57-1.33 4 4 0 0 0 .89-.38A3.47 3.47 0 0 0 23.1 52a10.57 10.57 0 0 0-2.4-7.2c-2.17-2.52-4.71-4-6.83-4a3.86 3.86 0 0 0-2 .55l-.09.06a3 3 0 0 0-.51.51c0-.06 0-.11-.06-.17l.2-.15c2.12-1.88 3.22-10.67 2.12-13.64a2.65 2.65 0 0 0-.73-1.13c-.08-.94-.35-6.19 4.38-8.75a4.87 4.87 0 0 0 1.46-1.15l.07-.07a7.94 7.94 0 0 1 1.52-1.31 7.77 7.77 0 0 1 3.84-1.5H25.29a5 5 0 0 0 2-.24 15 15 0 0 1 2.5-.62 14.31 14.31 0 0 1 7 .62 4.79 4.79 0 0 0 2 .25H40a6.8 6.8 0 0 1 3.7 1.66 19.13 19.13 0 0 1 1.61 1.39l.19.19a3.76 3.76 0 0 0 1.26.87c4.47 1.9 4.43 7.59 4.38 8.68a2.68 2.68 0 0 0-.7 1.15c-1.1 3 0 11.79 2.12 13.67l.16.12a22.74 22.74 0 0 1-.86 2.77z"/>
      <path fill="#8d6c9f" d="M32 23.89h.11c4.15 0 7.4-2.08 7.38-4.62 0-2.11-3.52-4.78-7.44-4.78s-7.43 2.67-7.44 4.78c-.07 2.54 3.18 4.57 7.39 4.62zm0-7.4c3.12 0 5.44 2.14 5.44 2.79 0 1.06-2 2.57-5.48 2.61s-5.41-1.54-5.41-2.61c.01-.65 2.33-2.79 5.45-2.79zm-1.93 16.92a8.23 8.23 0 0 0-.35-6.26 6.85 6.85 0 0 0-4-3.51 6.68 6.68 0 0 0-2.18-.34 7.84 7.84 0 0 0-7.19 5.51 8.23 8.23 0 0 0 .35 6.26 6.84 6.84 0 0 0 4 3.51 6.64 6.64 0 0 0 2.12.35 7.88 7.88 0 0 0 7.25-5.52zm-8.73 3.27a4.85 4.85 0 0 1-2.8-2.5 6.22 6.22 0 0 1-.25-4.73 5.84 5.84 0 0 1 5.31-4.15 4.67 4.67 0 0 1 1.49.24 4.86 4.86 0 0 1 2.8 2.5 6.22 6.22 0 0 1 .25 4.73c-1.01 3.06-4.08 4.82-6.81 3.9zm25.89-7.88A7.84 7.84 0 0 0 40 23.3a6.72 6.72 0 0 0-2.18.34 6.84 6.84 0 0 0-4 3.51 8.23 8.23 0 0 0-.35 6.26 7.88 7.88 0 0 0 7.25 5.51 6.64 6.64 0 0 0 2.12-.35 6.84 6.84 0 0 0 4-3.51 8.23 8.23 0 0 0 .39-6.26zm-2.14 5.37a4.85 4.85 0 0 1-2.8 2.5c-2.73.92-5.8-.84-6.84-3.91A6.22 6.22 0 0 1 35.7 28a4.86 4.86 0 0 1 2.8-2.5 4.71 4.71 0 0 1 1.5-.2 5.84 5.84 0 0 1 5.31 4.15 6.22 6.22 0 0 1-.23 4.73zM32 38a7.62 7.62 0 0 0-5.14 1.93 6.72 6.72 0 0 0-.05 10 7.66 7.66 0 0 0 10.39 0 6.71 6.71 0 0 0-.05-10A7.62 7.62 0 0 0 32 38zm3.84 10.5a5.67 5.67 0 0 1-7.67 0 4.82 4.82 0 0 1-1.59-3.5 4.88 4.88 0 0 1 1.62-3.57 5.82 5.82 0 0 1 7.6 0A4.89 4.89 0 0 1 37.42 45a4.82 4.82 0 0 1-1.58 3.5zm11.74-23.26a1 1 0 1 0 1.16-1.63 43.1 43.1 0 0 1-6.13-5.38 1 1 0 0 0-1.48 1.35 45.39 45.39 0 0 0 6.45 5.66zm-24.81-5.69a1 1 0 0 0-1.47-1.35 42.9 42.9 0 0 1-6.07 5.28 1 1 0 0 0 1.15 1.64 45.24 45.24 0 0 0 6.39-5.57zm27.13 21.3a6.53 6.53 0 0 0-2.86.85 1 1 0 0 0 .96 1.76 4.63 4.63 0 0 1 2-.61 1 1 0 0 0 1-1 1 1 0 0 0-1.1-1zM2.67 27.66l1.9 1a1 1 0 0 0 1-1.76l-1.9-1a1 1 0 0 0-1 1.76zM5 38.13a1 1 0 0 0-1.24-.67l-2.22.66a1 1 0 0 0 .6 1.88l2.22-.66A1 1 0 0 0 5 38.13zm1 4.39L4.24 44a1 1 0 1 0 1.27 1.54l1.79-1.48A1 1 0 0 0 6 42.52zm1.67-18.2A1 1 0 0 0 9.21 23l-1.37-1.62a1 1 0 0 0-1.54 1.27zm-4.2 9.83h.1a1 1 0 0 0 .09-2l-2.3-.22a1 1 0 1 0-.19 2z"/>
    </symbol>
    <symbol viewBox="0 0 32 32" id="icon-sass">
      <path d="M15.145 5.014c-1.414-.075-3.003.142-4.557.681-2.47.857-5.142 2.205-7.063 3.961-2.282 2.09-2.648 3.91-2.498 4.67.534 2.7 4.34 4.46 5.864 5.762-.075.04-.145.076-.211.113-.764.371-3.599 1.829-4.325 3.397-.82 1.778.136 3.05.764 3.224 1.96.532 3.898-.397 4.975-1.968 1.078-1.572.948-3.624.45-4.56-.004-.013-.014-.022-.019-.036.197-.115.398-.23.6-.346.389-.225.769-.43 1.102-.61-.188.496-.324 1.093-.395 1.954-.084 1.008.342 2.312.895 2.826.244.225.538.23.72.23.647 0 .938-.522 1.26-1.146.398-.761.75-1.645.75-1.645s-.44 2.391.766 2.391c.44 0 .88-.554 1.078-.838v.004s.007-.018.031-.055c.047-.069.07-.109.07-.109V22.9c.178-.298.569-.98 1.155-2.107.759-1.457 1.484-3.277 1.484-3.277.07.4.167.794.291 1.181.131.435.409.912.629 1.375-.178.238-.287.375-.287.375 0 .004.003.008.006.01-.141.183-.301.38-.465.572-.6.697-1.313 1.496-1.406 1.725-.113.27-.085.47.13.627.16.119.443.137.737.115a3.331 3.331 0 0 0 1.101-.248c.337-.118.656-.28.946-.484.586-.422.943-1.028.91-1.825-.02-.44-.166-.88-.344-1.293.052-.073.11-.15.16-.228.928-1.324 1.645-2.777 1.645-2.777.07.4.167.794.29 1.181.114.371.334.779.536 1.178-.871.692-1.412 1.494-1.6 2.021-.347.976-.073 1.415.438 1.516.23.046.557-.058.8-.158.363-.118.703-.29 1.012-.51.586-.422 1.154-1.012 1.116-1.814-.014-.362-.116-.725-.252-1.073.736-.302 1.69-.467 2.91-.33 2.61.298 3.121 1.893 3.023 2.557-.098.665-.647 1.036-.83 1.146-.183.11-.238.152-.224.235.023.119.106.114.261.086.216-.037 1.368-.54 1.42-1.774.075-1.557-1.455-3.27-4.168-3.257h-.004c-.941 0-1.87.211-2.715.619-.277-.545-.563-1.022-.609-1.38-.056-.416-.116-.663-.05-1.157.065-.495.36-1.197.355-1.248-.005-.05-.066-.302-.67-.307-.604-.005-1.126.114-1.186.27-.107.284-.19.576-.248.874-.108.536-1.209 2.453-1.832 3.452-.206-.39-.379-.733-.416-1.008-.056-.417-.118-.664-.053-1.158.066-.495.363-1.197.358-1.248-.005-.05-.066-.302-.67-.307-.604-.005-1.127.114-1.188.27-.06.155-.127.521-.248.874-.122.353-1.588 3.544-1.972 4.373-.197.422-.367.762-.489.99-.019.038-.032.06-.04.079.013-.023.023-.046.023-.037-.103.197-.164.306-.164.306v.004c-.08.147-.17.282-.211.282-.028 0-.09-.386.014-.913.22-1.109.74-2.832.736-2.892-.005-.032.096-.33-.344-.49-.427-.151-.58.101-.617.101-.038 0-.066.092-.066.092s.471-1.943-.91-1.943c-.864 0-2.064.925-2.653 1.763-.37.197-1.172.624-2.016 1.078l-.968.522c-.023-.023-.043-.046-.067-.069-1.678-1.75-4.775-2.988-4.644-5.34.047-.856.353-3.105 5.957-5.837 4.594-2.236 8.266-1.623 8.898-.258.91 1.948-1.964 5.574-6.734 6.096-1.818.197-2.656-.571-2.895-.828-.248-.27-.287-.285-.38-.235-.156.082-.057.321 0 .463.14.362.767.929 1.765 1.25.877.28 2.89.515 5.469-.46 2.896-1.092 5.108-4.056 4.447-6.599-.42-1.615-2.289-2.551-4.644-2.675zm-1.538 12.275c.074.005.128.033.159.084.164.271-.57 2.266-.758 2.715-.3.72-.934 2.554-1.319 2.457-.328-.082-.53-1.48-.066-2.856.234-.692.731-1.516 1.027-1.837.355-.389.738-.58.957-.563zm9.74 2.262c.056.16.085.328.089.496-.005 1.032-.76 1.416-1.213 1.576-.094-.064-.082-.28.232-.95.122-.26.405-.7.893-1.122zM7.605 20.688c.389 1.393.014 2.621-.895 3.59-.862.92-2.072 1.269-2.592.976-.558-.317-.337-1.674.727-2.656.647-.596 1.482-1.146 2.035-1.485.127-.073.308-.183.533-.316a.576.576 0 0 1 .057-.031c.042-.027.088-.05.135-.078zm11.777.16c0 .023.006.047.006.074-.006.82-.814 1.374-1.18 1.594h.004v.002c-.127.064-.245.104-.3.072-.043-.023.052-.11.052-.11s.651-.684.908-.996c.15-.183.323-.398.51-.636z"/>
    </symbol>
    <symbol viewBox="0 0 48 48" id="icon-sprint-iteration">
      <path fill="#0097a7" d="M28.795 3.029a1.495 1.495 0 0 0-1.766 1.176l-.271 1.358A9.468 9.468 0 0 0 19.38 2C14.208 2 10 6.136 10 11.22c0 3.904 2.516 7.4 6.262 8.699a1.502 1.502 0 0 0 1.907-.928 1.504 1.504 0 0 0-.927-1.909C14.705 16.203 13 13.847 13 11.22 13 7.79 15.862 5 19.38 5c1.952 0 3.769.875 4.968 2.34l-1.55-.31a1.476 1.476 0 0 0-1.126.218 1.501 1.501 0 0 0 .534 2.723l4.997 1c.764.159 1.608-.376 1.768-1.176l1-5a1.503 1.503 0 0 0-1.176-1.766z"/>
      <path fill="#006064" d="M45.061 41.439l-4-4a1.501 1.501 0 0 0-2.121 0 1.501 1.501 0 0 0 0 2.121L40.379 41h-7.082C36.756 38.348 39 34.186 39 29.5 39 21.505 32.495 15 24.5 15S10 21.505 10 29.5c0 2.039.43 4.021 1.24 5.852l-2.492-.409c-.4-.069-.796.022-1.123.255-.324.23-.539.573-.604.963a1.46 1.46 0 0 0 .255 1.101c.232.327.581.543.979.608l5.995.983a1.491 1.491 0 0 0 1.73-1.218l1-5.905a1.46 1.46 0 0 0-.255-1.101 1.484 1.484 0 0 0-.974-.607 1.492 1.492 0 0 0-1.73 1.218l-.402 2.37a11.598 11.598 0 0 1-.753-4.112c0-6.415 5.219-11.633 11.634-11.633s11.634 5.22 11.634 11.635c0 5.848-4.341 10.688-9.968 11.5H4c-.827 0-1.5.673-1.5 1.5S3.173 44 4 44h36.379l-1.439 1.439a1.501 1.501 0 0 0 2.121 2.122l4-4a1.502 1.502 0 0 0 0-2.122z"/>
    </symbol>
    <symbol viewBox="0 0 48 48" id="icon-sql">
      <path fill="#D1C4E9" d="M41 4H7a2 2 0 0 0-2 2v8a2 2 0 0 0 2 2h34a2 2 0 0 0 2-2V6a2 2 0 0 0-2-2m0 14H7a2 2 0 0 0-2 2v8a2 2 0 0 0 2 2h34a2 2 0 0 0 2-2v-8a2 2 0 0 0-2-2m0 14H7a2 2 0 0 0-2 2v8a2 2 0 0 0 2 2h34a2 2 0 0 0 2-2v-8a2 2 0 0 0-2-2"/>
      <path fill="#D1C4E9" d="M24 8a16 16 0 1 0 0 32 16 16 0 1 0 0-32z"/>
      <path fill="#512DA8" d="M18.004 26.389c0-.405-.104-.712-.311-.919-.208-.208-.584-.423-1.131-.646-.998-.378-1.716-.821-2.153-1.33a2.668 2.668 0 0 1-.656-1.801c0-.839.297-1.512.892-2.02.595-.509 1.35-.763 2.266-.763.611 0 1.155.129 1.634.386.479.258.847.621 1.104 1.091s.386 1.003.386 1.6h-2.003c0-.465-.099-.819-.297-1.063-.198-.243-.484-.365-.858-.365-.351 0-.625.104-.82.311-.196.208-.294.487-.294.838 0 .273.109.521.328.742.219.221.606.449 1.162.687.971.351 1.676.781 2.116 1.292s.66 1.16.66 1.948c0 .866-.276 1.543-.827 2.03s-1.301.731-2.249.731c-.643 0-1.228-.132-1.757-.396s-.942-.643-1.241-1.135-.448-1.073-.448-1.743h2.017c0 .574.112.991.335 1.251s.588.39 1.094.39c.7-.002 1.051-.373 1.051-1.116zm10.356-1.593c0 1.646-.444 2.842-1.333 3.589l1.374 1.23-1.265 1.162-1.832-1.675-.526.034c-1.125 0-2.006-.382-2.642-1.146-.636-.763-.956-1.819-.96-3.168v-1.559c0-1.367.317-2.435.95-3.203.633-.768 1.513-1.151 2.639-1.151 1.099 0 1.966.369 2.604 1.107s.969 1.775.991 3.11v1.67zm-2.016-1.545c0-.907-.13-1.577-.39-2.01s-.656-.649-1.189-.649-.927.211-1.183.632c-.255.422-.387 1.063-.396 1.925v1.647c0 .911.131 1.584.393 2.017s.662.649 1.2.649c.524 0 .915-.215 1.173-.646.257-.43.389-1.088.393-1.972v-1.593zm5.475 4.081h3.527V29H29.81v-9.953h2.01v8.285z"/>
    </symbol>
    <symbol viewBox="0 0 64 64" id="icon-webpack">
      <path fill="#ace3ff" d="M7 17L32 3l26 14-26 14zM6 17v30l26 15V31z"/>
      <path fill="#7bbeeb" d="M17 23l15-8 15 8-15 8z"/>
      <path fill="#ace3ff" d="M32 62l27-15V17L32 31z"/>
      <path fill="#7bbeeb" d="M17 23v18l15 8V31zM32 49l15-8V23l-15 8z"/>
      <path fill="#e3f2ff" d="M17 41L6 47V17l11 6z"/>
      <path fill="#8d6c9f" d="M32 32c-.162 0-.324-.039-.471-.117l-15-8a1.003 1.003 0 0 1 0-1.766l15-8c.294-.156.647-.156.941 0l15 8a1.002 1.002 0 0 1 .001 1.766l-15 8A1.005 1.005 0 0 1 32 32zm-12.875-9L32 29.866 44.875 23 32 16.134 19.125 23z"/>
      <path fill="#8d6c9f" d="M17 27a1 1 0 0 1-1-1v-2.406L5.521 17.878a1 1 0 0 1 .005-1.759l26-14a1 1 0 1 1 .948 1.761L8.099 17.006l9.38 5.116A1 1 0 0 1 18 23v3a1 1 0 0 1-1 1zM17 35a1 1 0 0 1-1-1v-4a1 1 0 1 1 2 0v4a1 1 0 0 1-1 1zM32 50c-.162 0-.323-.039-.471-.117l-15-8A1.003 1.003 0 0 1 16 41v-3a1 1 0 1 1 2 0v2.4l13 6.933V31a1 1 0 1 1 2 0v18a.997.997 0 0 1-1 1z"/>
      <path fill="#85cbf8" d="M59 47L32 61V49l15-8z"/>
      <path fill="#8d6c9f" d="M32 63a1 1 0 0 1-1-1V49a1 1 0 1 1 2 0v11.301l25.514-14.175a.999.999 0 1 1 .972 1.748l-27 15A1.003 1.003 0 0 1 32 63zM47 42a1 1 0 0 1-1-1V23c0-.379.214-.725.553-.895l10.244-5.122L33 4.645V15a1 1 0 1 1-2 0V3a.998.998 0 0 1 1.46-.887l27 14a1.002 1.002 0 0 1-.013 1.783L48 23.618V41a1 1 0 0 1-1 1zM44.139 44.66a1 1 0 0 1-.883-.529l-.941-1.765a1 1 0 1 1 1.764-.942l.941 1.765a1 1 0 0 1-.881 1.471zM39.972 46.883c-.357 0-.703-.192-.884-.529l-.941-1.766a1.002 1.002 0 0 1 1.766-.942l.941 1.766a1.002 1.002 0 0 1-.882 1.471z"/>
      <path fill="#8d6c9f" d="M35.805 49.104a1 1 0 0 1-.883-.529l-.942-1.765a1 1 0 1 1 1.765-.942l.941 1.765a1 1 0 0 1-.881 1.471zM59 48c-.153 0-.306-.035-.447-.105l-12-6a1 1 0 0 1 .895-1.789L58 45.382V17a1 1 0 1 1 2 0v30a1.003 1.003 0 0 1-1 1zM6 48a1 1 0 0 1-1-1V17a1 1 0 1 1 2 0v28.315l9.521-5.193a1 1 0 0 1 .958 1.755l-11 6A.993.993 0 0 1 6 48z"/>
      <path fill="#8d6c9f" d="M31.999 63a.997.997 0 0 1-.499-.134l-26-15a1 1 0 0 1 1-1.732l26 15A1 1 0 0 1 31.999 63z"/>
    </symbol>
  </defs>
</svg>